<?xml version="1.0" encoding="utf-8"?>
<!-- Generator: Adobe Illustrator 18.0.0, SVG Export Plug-In . SVG Version: 6.00 Build 0)  -->
<!DOCTYPE svg PUBLIC "-//W3C//DTD SVG 1.1//EN" "http://www.w3.org/Graphics/SVG/1.1/DTD/svg11.dtd">
<svg version="1.1" id="Layer_1" xmlns="http://www.w3.org/2000/svg" xmlns:xlink="http://www.w3.org/1999/xlink" x="0px" y="0px"
	 viewBox="0 0 105.8 60" enable-background="new 0 0 105.8 60" xml:space="preserve">
<g>
	<path fill="#FFFFFF" d="M6.4,56.8c19-12.2,40.5-3.4,51.3,2.5C42.8,53.3,21,52,6.4,56.8z"/>
	<path fill="#FFFFFF" d="M39.7,0.9c9.1,0,17,5.4,20.5,13.1h-7.1c-3.1-3.9-8-6.4-13.4-6.4c-5.4,0-10.1,2.4-13.3,6.2
		c0.2-0.1,0.4-0.2,0.5-0.4C34.3,8.1,44.2,14,44.2,14s-9.4-2.8-15.8,1.7c-6.4,4.5-5.4,13.4-5.4,13.4S23,29,22.9,28.8
		c0,0.1,0.1,0.2,0.1,0.3c-1.5-1.1-3.4-1.9-5.4-2c-0.2-1.3-0.4-2.7-0.4-4C17.3,10.8,27.3,0.9,39.7,0.9L39.7,0.9z M11,51.6v-1.9
		c5.9-4.4,16.8-10.1,30-6c20,6.2,32.6,14.7,48.1,10.9s16.8-12.3,16.8-12.3s-2.7,11.9-17.9,14.5c-15.2,2.6-29.2-0.3-47-7
		C28.9,45.5,17.3,48.9,11,51.6L11,51.6z M11,47.8c1.1-0.7,2.2-1.4,3.3-2c-0.5-0.3-1-0.7-1.4-1.1C12,43.9,11.4,43,11,42.2v4.1
		l0.1,0.1c0.2,0.2,0.4,0.4,0.6,0.6c-0.2-0.1-0.5-0.2-0.7-0.4V47.8L11,47.8z M11,28.5v-7c1.5-0.5,3-0.8,4.6-0.9
		c-0.1,0.8-0.1,1.6-0.1,2.5c0,1.4,0.1,2.8,0.4,4.1C14.1,27.2,12.4,27.7,11,28.5z M11,21.5v7c-3.1,1.8-5.2,5.1-5.2,9
		c0,3.8,2.1,7.2,5.2,9v1.2c-1.2,0.9-2.5,1.8-3.5,2.5C3,47.4,0,42.4,0,36.7C0,29.6,4.6,23.6,11,21.5L11,21.5z M11,42.1
		c-2-3.9-1.3-8.3-1.3-8.3S6.3,41.6,11,46.2V42.1L11,42.1z M11,49.7c-3.1,2.3-4.8,4.2-4.8,4.2c0,0.1,1.8-1,4.8-2.3V49.7z"/>
	<path fill="#FFFFFF" d="M61.2,46.7c0,0,9.5,4.9,18.5,4.1c8.9-0.8,11.7-3.9,11.7-3.9s-3.3,6-11.9,6.4C70.8,53.5,61.2,46.8,61.2,46.7
		z"/>
	<rect x="53.9" y="15.8" fill="#FFFFFF" width="8" height="8"/>
	<rect x="85.7" y="38" fill="#FFFFFF" width="6.2" height="6.2"/>
	<rect x="63.5" y="8.5" fill="#FFFFFF" width="10.7" height="10.7"/>
	<rect x="94.5" y="27" fill="#FFFFFF" width="10.7" height="10.7"/>
	<rect x="75.3" y="20" fill="#FFFFFF" width="5.9" height="5.9"/>
	<rect x="79.2" y="31.7" fill="#FFFFFF" width="5.9" height="5.9"/>
	<rect x="66.7" y="32.3" fill="#FFFFFF" width="6" height="5.9"/>
	<rect x="87.5" y="20.2" fill="#FFFFFF" width="5.9" height="5.9"/>
</g>
</svg>
