<?xml version="1.0" encoding="utf-8"?>
<!-- Generator: Adobe Illustrator 18.0.0, SVG Export Plug-In . SVG Version: 6.00 Build 0)  -->
<!DOCTYPE svg PUBLIC "-//W3C//DTD SVG 1.1//EN" "http://www.w3.org/Graphics/SVG/1.1/DTD/svg11.dtd">
<svg version="1.1" id="Layer_1" xmlns="http://www.w3.org/2000/svg" xmlns:xlink="http://www.w3.org/1999/xlink" x="0px" y="0px"
	 viewBox="0 0 392 60" enable-background="new 0 0 392 60" xml:space="preserve">
<g>
	<path fill="#FFFFFF" d="M11.1,57.4c19.5-12.5,41.5-3.5,52.5,2.5C48.3,53.9,26.1,52.5,11.1,57.4z"/>
	<path fill="#FFFFFF" d="M45.2,0.2c9.3,0,17.4,5.5,21,13.4h-7.3c-3.2-4-8.2-6.5-13.8-6.5c-5.5,0-10.4,2.5-13.6,6.3
		c0.2-0.1,0.4-0.3,0.5-0.4c7.6-5.4,17.8,0.6,17.8,0.6s-9.7-2.8-16.2,1.8c-6.6,4.6-5.5,13.8-5.5,13.8s-0.1-0.1-0.1-0.3
		c0,0.1,0.1,0.2,0.1,0.3c-1.6-1.1-3.5-1.9-5.6-2.1c-0.3-1.3-0.4-2.7-0.4-4.1C22.3,10.4,32.6,0.2,45.2,0.2L45.2,0.2z M15.8,52.1v-2
		c6.1-4.5,17.2-10.3,30.7-6.1C67,50.4,79.9,59.1,95.7,55.2s17.2-12.6,17.2-12.6s-2.8,12.2-18.3,14.8c-15.5,2.7-29.9-0.3-48.1-7.1
		C34.2,45.9,22.3,49.4,15.8,52.1L15.8,52.1z M15.8,48.2c1.1-0.8,2.3-1.5,3.3-2c-0.5-0.3-1-0.7-1.5-1.1c-0.8-0.8-1.5-1.7-1.9-2.6v4.2
		l0.1,0.1c0.2,0.2,0.4,0.4,0.6,0.6c-0.3-0.1-0.5-0.3-0.8-0.4V48.2L15.8,48.2z M15.8,28.5v-7.2c1.5-0.5,3.1-0.8,4.7-0.9
		c-0.1,0.8-0.1,1.6-0.1,2.5c0,1.5,0.1,2.8,0.4,4.2C19,27.2,17.3,27.7,15.8,28.5z M15.8,21.3v7.2c-3.2,1.8-5.4,5.2-5.4,9.2
		c0,3.9,2.1,7.3,5.4,9.2v1.3c-1.3,0.9-2.5,1.8-3.6,2.6c-4.6-3-7.6-8.1-7.6-13.9C4.6,29.6,9.3,23.5,15.8,21.3L15.8,21.3z M15.8,42.4
		c-2-4-1.3-8.5-1.3-8.5s-3.5,8,1.3,12.7V42.4L15.8,42.4z M15.8,50.1c-3.2,2.3-4.9,4.3-4.9,4.3c0,0.1,1.8-1,4.9-2.3V50.1z"/>
	<path fill="#FFFFFF" d="M67.2,47.1c0,0,9.7,5,18.9,4.2c9.2-0.8,11.9-4,11.9-4s-3.3,6.2-12.2,6.6C77.1,54.1,67.2,47.2,67.2,47.1z"/>
	<rect x="59.7" y="15.5" fill="#FFFFFF" width="8.2" height="8.2"/>
	<rect x="92.3" y="38.2" fill="#FFFFFF" width="6.3" height="6.3"/>
	<rect x="69.6" y="8" fill="#FFFFFF" width="10.9" height="10.9"/>
	<rect x="101.3" y="26.9" fill="#FFFFFF" width="10.9" height="10.9"/>
	<rect x="81.6" y="19.8" fill="#FFFFFF" width="6.1" height="6.1"/>
	<rect x="85.7" y="31.8" fill="#FFFFFF" width="6.1" height="6.1"/>
	<rect x="72.9" y="32.3" fill="#FFFFFF" width="6.1" height="6.1"/>
	<rect x="94.2" y="20" fill="#FFFFFF" width="6.1" height="6.1"/>
</g>
<g>
	<path fill="#FFFFFF" d="M167.9,32.1c0,2.5-0.4,4.9-1.3,7c-0.8,2.1-2,4-3.6,5.5c-1.5,1.5-3.4,2.7-5.6,3.6c-2.1,0.8-4.5,1.3-7.2,1.3
		h-13.4V14.7h13.3c2.7,0,5.1,0.4,7.2,1.3c2.1,0.9,4,2.1,5.6,3.6c1.5,1.5,2.7,3.3,3.6,5.5C167.5,27.3,167.9,29.6,167.9,32.1z
		 M161.3,32.1c0-1.9-0.3-3.6-0.8-5.2c-0.5-1.5-1.3-2.8-2.2-3.9c-0.9-1.1-2.1-1.8-3.5-2.4c-1.4-0.6-2.9-0.8-4.6-0.8h-6.8v24.6h6.8
		c1.7,0,3.2-0.3,4.6-0.8c1.4-0.6,2.5-1.4,3.5-2.4c0.9-1.1,1.7-2.3,2.2-3.9C161,35.8,161.3,34,161.3,32.1z"/>
	<path fill="#FFFFFF" d="M177.4,17.6c0,0.5-0.1,1-0.3,1.5c-0.2,0.4-0.5,0.8-0.8,1.2c-0.3,0.3-0.8,0.6-1.2,0.8
		c-0.4,0.2-0.9,0.3-1.5,0.3c-0.5,0-1-0.1-1.5-0.3c-0.4-0.2-0.9-0.4-1.2-0.8c-0.3-0.3-0.6-0.8-0.8-1.2c-0.2-0.4-0.3-0.9-0.3-1.5
		s0.1-1,0.3-1.5c0.2-0.4,0.4-0.9,0.8-1.2c0.3-0.3,0.8-0.6,1.2-0.8c0.4-0.2,0.9-0.3,1.5-0.3c0.5,0,1,0.1,1.5,0.3
		c0.4,0.2,0.9,0.4,1.2,0.8c0.3,0.3,0.6,0.8,0.8,1.2C177.3,16.6,177.4,17.1,177.4,17.6z M176.6,24.8v24.8h-5.9V24.8H176.6z"/>
	<path fill="#FFFFFF" d="M189.4,24.4c1.1,0,2.1,0.1,3,0.3c0.9,0.2,1.8,0.5,2.5,0.9h7.1v2.2c0,0.4-0.1,0.6-0.3,0.9
		c-0.2,0.2-0.5,0.4-1,0.4l-2.2,0.4c0.2,0.4,0.3,0.9,0.4,1.3c0.1,0.4,0.1,0.9,0.1,1.5c0,1.2-0.3,2.3-0.8,3.3c-0.5,1-1.1,1.8-2,2.5
		s-1.9,1.2-3,1.6c-1.2,0.4-2.5,0.6-3.9,0.6c-0.9,0-1.8-0.1-2.7-0.3c-0.8,0.4-1.1,1-1.1,1.6c0,0.5,0.3,0.9,0.7,1.1
		c0.4,0.3,1.1,0.4,1.8,0.5c0.8,0.1,1.6,0.1,2.5,0.1c0.9,0,1.9,0.1,2.9,0.1c1,0.1,2,0.3,2.9,0.4c0.9,0.2,1.8,0.5,2.5,0.9
		c0.8,0.4,1.3,1,1.8,1.8c0.4,0.8,0.7,1.7,0.7,2.9c0,1.1-0.3,2.1-0.8,3.2c-0.6,1-1.3,2-2.3,2.8c-1,0.8-2.3,1.5-3.7,2
		c-1.5,0.5-3.2,0.8-5.1,0.8c-1.9,0-3.5-0.2-4.9-0.6c-1.4-0.4-2.5-0.8-3.4-1.5c-0.9-0.6-1.6-1.3-2-2.1c-0.4-0.8-0.7-1.6-0.7-2.5
		c0-1.1,0.4-2.1,1.1-2.9c0.7-0.8,1.7-1.4,3-1.9c-0.6-0.3-1.1-0.8-1.5-1.3c-0.4-0.6-0.6-1.3-0.6-2.2c0-0.4,0.1-0.8,0.2-1.1
		c0.1-0.4,0.3-0.8,0.6-1.2c0.3-0.4,0.6-0.8,1-1.1c0.4-0.3,0.9-0.6,1.5-0.9c-1.3-0.7-2.2-1.6-3-2.7c-0.7-1.1-1.1-2.5-1.1-4
		c0-1.2,0.3-2.3,0.8-3.3c0.5-1,1.2-1.8,2-2.5c0.9-0.7,1.9-1.3,3.1-1.6C186.7,24.6,188,24.4,189.4,24.4z M195.9,50.7
		c0-0.5-0.1-0.9-0.4-1.2c-0.3-0.3-0.7-0.6-1.2-0.8c-0.5-0.2-1.1-0.3-1.8-0.4c-0.7-0.1-1.4-0.1-2.1-0.1c-0.8,0-1.5,0-2.3,0
		c-0.8,0-1.6-0.1-2.3-0.3c-0.7,0.4-1.2,0.8-1.6,1.3s-0.6,1.1-0.6,1.8c0,0.4,0.1,0.8,0.3,1.2c0.2,0.4,0.6,0.7,1,0.9
		c0.5,0.3,1.1,0.5,1.8,0.6c0.8,0.1,1.7,0.3,2.8,0.3c1.1,0,2.1-0.1,2.8-0.3c0.8-0.2,1.5-0.4,2-0.7c0.5-0.3,0.9-0.7,1.1-1.1
		C195.8,51.6,195.9,51.1,195.9,50.7z M189.4,36.6c0.8,0,1.4-0.1,2-0.3c0.6-0.2,1-0.5,1.4-0.8c0.4-0.4,0.6-0.8,0.8-1.3
		c0.2-0.5,0.3-1.1,0.3-1.6c0-1.2-0.4-2.2-1.1-2.9c-0.8-0.7-1.8-1.1-3.3-1.1c-1.5,0-2.6,0.4-3.3,1.1c-0.8,0.7-1.1,1.7-1.1,2.9
		c0,0.6,0.1,1.1,0.3,1.6c0.2,0.5,0.4,0.9,0.8,1.3c0.4,0.4,0.8,0.6,1.4,0.8C188.2,36.5,188.7,36.6,189.4,36.6z"/>
	<path fill="#FFFFFF" d="M210.7,17.6c0,0.5-0.1,1-0.3,1.5c-0.2,0.4-0.5,0.8-0.8,1.2c-0.3,0.4-0.8,0.6-1.2,0.8
		c-0.4,0.2-0.9,0.3-1.5,0.3c-0.5,0-1-0.1-1.5-0.3c-0.4-0.2-0.9-0.4-1.2-0.8c-0.3-0.3-0.6-0.8-0.8-1.2c-0.2-0.4-0.3-0.9-0.3-1.5
		s0.1-1,0.3-1.5c0.2-0.4,0.4-0.9,0.8-1.2c0.3-0.3,0.8-0.6,1.2-0.8c0.4-0.2,0.9-0.3,1.5-0.3c0.5,0,1,0.1,1.5,0.3
		c0.4,0.2,0.9,0.4,1.2,0.8c0.3,0.3,0.6,0.8,0.8,1.2C210.5,16.6,210.7,17.1,210.7,17.6z M209.8,24.8v24.8h-5.9V24.8H209.8z"/>
	<path fill="#FFFFFF" d="M222.2,50c-2.1,0-3.8-0.6-4.9-1.8c-1.1-1.2-1.7-2.9-1.7-5.1V29.3h-2.5c-0.3,0-0.6-0.1-0.8-0.3
		c-0.3-0.2-0.4-0.5-0.4-0.9v-2.3l4-0.6l1.3-6.8c0.1-0.3,0.2-0.6,0.4-0.8c0.3-0.2,0.5-0.3,0.9-0.3h3.1v7.8h6.5v4.2h-6.5v13.4
		c0,0.8,0.2,1.4,0.6,1.8c0.4,0.4,0.9,0.6,1.5,0.6c0.4,0,0.7-0.1,0.9-0.1s0.4-0.2,0.6-0.3c0.2-0.1,0.4-0.2,0.5-0.3
		c0.1-0.1,0.3-0.1,0.4-0.1c0.2,0,0.3,0.1,0.4,0.1s0.3,0.3,0.4,0.4l1.8,2.9c-0.9,0.7-1.9,1.3-3,1.6C224.6,49.8,223.4,50,222.2,50z"/>
	<path fill="#FFFFFF" d="M249.7,49.6H247c-0.6,0-1-0.1-1.3-0.3c-0.3-0.2-0.6-0.5-0.7-1l-0.5-1.8c-0.6,0.6-1.3,1.1-1.8,1.5
		c-0.6,0.4-1.2,0.8-1.9,1.1c-0.6,0.3-1.3,0.5-2,0.6c-0.7,0.1-1.5,0.2-2.4,0.2c-1.1,0-2-0.1-2.9-0.4c-0.9-0.3-1.6-0.7-2.3-1.3
		c-0.6-0.6-1.1-1.3-1.5-2.1c-0.3-0.8-0.5-1.8-0.5-2.9c0-0.9,0.3-1.8,0.8-2.8c0.5-0.9,1.3-1.7,2.5-2.5c1.1-0.8,2.7-1.3,4.5-1.8
		c1.9-0.5,4.2-0.7,7.1-0.7V34c0-1.6-0.4-2.9-1.1-3.7c-0.7-0.8-1.7-1.2-3-1.2c-0.9,0-1.8,0.1-2.4,0.3c-0.6,0.2-1.2,0.5-1.7,0.8
		c-0.5,0.3-0.9,0.5-1.3,0.8c-0.4,0.3-0.8,0.3-1.3,0.3c-0.4,0-0.8-0.1-1-0.3c-0.3-0.2-0.5-0.4-0.7-0.8l-1.1-1.9
		c2.8-2.6,6.3-3.9,10.3-3.9c1.5,0,2.7,0.3,3.9,0.7c1.1,0.5,2.1,1.1,2.9,2c0.8,0.8,1.4,1.8,1.8,3c0.4,1.2,0.6,2.5,0.6,3.9v15.7H249.7
		z M238.1,45.9c0.6,0,1.2-0.1,1.7-0.2c0.5-0.1,1-0.3,1.5-0.5s0.9-0.5,1.3-0.8c0.4-0.3,0.9-0.7,1.3-1.1V39c-1.7,0-3.2,0.1-4.4,0.3
		c-1.1,0.2-2.1,0.5-2.8,0.8c-0.7,0.3-1.2,0.8-1.5,1.2c-0.3,0.4-0.4,0.9-0.4,1.5c0,1.1,0.3,1.8,0.9,2.3
		C236.3,45.7,237.1,45.9,238.1,45.9z"/>
	<path fill="#FFFFFF" d="M259.5,13.8v35.8h-5.9V13.8H259.5z"/>
	<path fill="#FFFFFF" d="M297.6,32.1c0,2.5-0.4,4.9-1.3,7.1c-0.8,2.1-2,4-3.6,5.7c-1.5,1.6-3.4,2.8-5.6,3.7
		c-2.1,0.9-4.5,1.3-7.2,1.3s-5.1-0.4-7.2-1.3c-2.1-0.9-4-2.1-5.6-3.7c-1.6-1.6-2.8-3.5-3.6-5.7c-0.8-2.1-1.3-4.5-1.3-7.1
		s0.4-4.9,1.3-7.1s2.1-4,3.6-5.7c1.6-1.6,3.4-2.8,5.6-3.7c2.1-0.9,4.6-1.3,7.2-1.3s5.1,0.4,7.2,1.3c2.1,0.9,4,2.1,5.6,3.7
		c1.5,1.6,2.7,3.5,3.6,5.6C297.2,27.2,297.6,29.6,297.6,32.1z M290.9,32.1c0-1.9-0.3-3.6-0.8-5.2c-0.5-1.5-1.3-2.8-2.2-3.9
		c-0.9-1.1-2.1-1.9-3.5-2.5c-1.4-0.6-2.9-0.8-4.6-0.8c-1.7,0-3.2,0.3-4.6,0.8c-1.4,0.6-2.5,1.4-3.5,2.5s-1.7,2.3-2.2,3.9
		c-0.5,1.5-0.8,3.2-0.8,5.2c0,1.9,0.3,3.6,0.8,5.1c0.5,1.5,1.3,2.8,2.2,3.9c0.9,1.1,2.1,1.8,3.5,2.4c1.4,0.6,2.9,0.8,4.6,0.8
		c1.7,0,3.2-0.3,4.6-0.8c1.4-0.6,2.5-1.4,3.5-2.4c0.9-1.1,1.7-2.3,2.2-3.9C290.7,35.8,290.9,34,290.9,32.1z"/>
	<path fill="#FFFFFF" d="M317.3,30.1c-0.2,0.3-0.4,0.4-0.5,0.5c-0.2,0.1-0.4,0.2-0.8,0.2s-0.6-0.1-0.9-0.3c-0.3-0.2-0.6-0.4-1-0.6
		c-0.4-0.3-0.9-0.4-1.5-0.6c-0.6-0.2-1.3-0.3-2.1-0.3c-1.1,0-2,0.2-2.8,0.6c-0.8,0.4-1.5,0.9-2,1.6c-0.5,0.7-0.9,1.6-1.2,2.6
		c-0.3,1-0.4,2.1-0.4,3.4c0,1.3,0.1,2.5,0.4,3.5c0.3,1,0.7,1.9,1.2,2.6c0.5,0.7,1.2,1.2,2,1.6c0.8,0.4,1.6,0.6,2.5,0.6
		c0.9,0,1.7-0.1,2.3-0.4c0.6-0.3,1.1-0.5,1.5-0.8c0.4-0.3,0.8-0.6,1.1-0.8c0.3-0.2,0.6-0.4,1-0.4c0.5,0,0.8,0.2,1.1,0.6l1.7,2.1
		c-0.6,0.8-1.4,1.4-2.1,2c-0.8,0.6-1.6,0.9-2.4,1.3s-1.7,0.5-2.6,0.6c-0.9,0.1-1.8,0.2-2.7,0.2c-1.5,0-3-0.3-4.3-0.9
		c-1.3-0.6-2.5-1.4-3.5-2.5c-1-1.1-1.8-2.4-2.4-4c-0.6-1.6-0.9-3.4-0.9-5.4c0-1.8,0.3-3.5,0.8-5.1c0.5-1.6,1.3-2.9,2.3-4
		s2.3-2,3.8-2.7c1.5-0.6,3.2-0.9,5.2-0.9c1.8,0,3.5,0.3,4.9,0.9c1.4,0.6,2.7,1.5,3.7,2.5L317.3,30.1z"/>
	<path fill="#FFFFFF" d="M330.8,24.4c1.6,0,3,0.3,4.3,0.8c1.3,0.5,2.5,1.2,3.4,2.2c0.9,0.9,1.7,2.1,2.2,3.5c0.5,1.4,0.8,3,0.8,4.7
		c0,0.4,0,0.8-0.1,1.1s-0.1,0.5-0.2,0.7c-0.1,0.2-0.3,0.3-0.4,0.4c-0.2,0.1-0.4,0.1-0.7,0.1h-15.3c0.2,2.5,0.9,4.4,2,5.6
		c1.2,1.2,2.8,1.8,4.7,1.8c0.9,0,1.8-0.1,2.5-0.3c0.7-0.3,1.3-0.5,1.8-0.8c0.5-0.3,1-0.5,1.4-0.8c0.4-0.3,0.8-0.3,1.1-0.3
		c0.3,0,0.4,0.1,0.6,0.1c0.2,0.1,0.3,0.3,0.4,0.4l1.7,2.1c-0.6,0.8-1.4,1.4-2.2,2c-0.8,0.6-1.7,0.9-2.6,1.3
		c-0.9,0.3-1.8,0.5-2.7,0.6c-0.9,0.1-1.8,0.2-2.7,0.2c-1.7,0-3.3-0.3-4.8-0.9c-1.5-0.6-2.8-1.4-3.9-2.5c-1.1-1.1-2-2.5-2.6-4.2
		c-0.6-1.6-0.9-3.5-0.9-5.7c0-1.7,0.3-3.3,0.8-4.7c0.6-1.5,1.3-2.8,2.3-3.9c1-1.1,2.3-2,3.7-2.6C327.3,24.8,328.9,24.4,330.8,24.4z
		 M330.9,28.7c-1.7,0-3.1,0.5-4.1,1.5c-1,1-1.6,2.4-1.9,4.2H336c0-0.8-0.1-1.5-0.3-2.2c-0.2-0.7-0.5-1.3-0.9-1.8
		c-0.4-0.5-1-0.9-1.6-1.2C332.6,28.9,331.7,28.7,330.9,28.7z"/>
	<path fill="#FFFFFF" d="M363.3,49.6h-2.7c-0.6,0-1-0.1-1.3-0.3c-0.3-0.2-0.6-0.5-0.7-1l-0.5-1.8c-0.6,0.6-1.3,1.1-1.8,1.5
		c-0.6,0.4-1.2,0.8-1.9,1.1c-0.6,0.3-1.3,0.5-2,0.6c-0.7,0.1-1.5,0.2-2.4,0.2c-1.1,0-2-0.1-2.9-0.4c-0.9-0.3-1.6-0.7-2.3-1.3
		c-0.6-0.6-1.1-1.3-1.5-2.1c-0.3-0.8-0.5-1.8-0.5-2.9c0-0.9,0.3-1.8,0.8-2.8c0.5-0.9,1.3-1.7,2.5-2.5c1.1-0.8,2.7-1.3,4.5-1.8
		c1.9-0.5,4.2-0.7,7.1-0.7V34c0-1.6-0.4-2.9-1.1-3.7c-0.7-0.8-1.7-1.2-3-1.2c-0.9,0-1.8,0.1-2.4,0.3c-0.6,0.2-1.2,0.5-1.7,0.8
		c-0.5,0.3-0.9,0.5-1.3,0.8c-0.4,0.3-0.8,0.3-1.3,0.3c-0.4,0-0.8-0.1-1-0.3c-0.3-0.2-0.5-0.4-0.7-0.8l-1.1-1.9
		c2.8-2.6,6.3-3.9,10.3-3.9c1.5,0,2.7,0.3,3.9,0.7c1.1,0.5,2.1,1.1,2.9,2c0.8,0.8,1.4,1.8,1.8,3c0.4,1.2,0.6,2.5,0.6,3.9v15.7H363.3
		z M351.7,45.9c0.6,0,1.2-0.1,1.7-0.2c0.5-0.1,1-0.3,1.5-0.5s0.9-0.5,1.3-0.8c0.4-0.3,0.9-0.7,1.3-1.1V39c-1.7,0-3.2,0.1-4.4,0.3
		c-1.1,0.2-2.1,0.5-2.8,0.8c-0.7,0.3-1.2,0.8-1.5,1.2c-0.3,0.4-0.4,0.9-0.4,1.5c0,1.1,0.3,1.8,0.9,2.3
		C349.9,45.7,350.7,45.9,351.7,45.9z"/>
	<path fill="#FFFFFF" d="M366.7,49.6V24.8h3.7c0.8,0,1.3,0.4,1.5,1.1l0.4,2c0.5-0.5,1-1,1.6-1.4c0.6-0.4,1.1-0.8,1.8-1.1
		c0.6-0.3,1.3-0.6,2-0.7c0.7-0.2,1.5-0.3,2.3-0.3c1.3,0,2.5,0.3,3.6,0.7c1.1,0.4,1.9,1.1,2.6,2c0.7,0.8,1.2,1.8,1.6,3
		c0.4,1.1,0.6,2.4,0.6,3.8v15.7h-5.9V33.9c0-1.5-0.4-2.7-1.1-3.5c-0.7-0.8-1.8-1.3-3.2-1.3c-1,0-2,0.3-2.9,0.7
		c-0.9,0.4-1.8,1.1-2.5,1.9v17.9L366.7,49.6L366.7,49.6z"/>
</g>
</svg>
