<svg width="120px" height="120px" viewBox="0 0 120 120" version="1.1" xmlns="http://www.w3.org/2000/svg" xmlns:xlink="http://www.w3.org/1999/xlink" xmlns:sketch="http://www.bohemiancoding.com/sketch/ns">

    <g id="Page-1" stroke="none" stroke-width="1" fill="none" fill-rule="evenodd" sketch:type="MSPage">
        <g id="Artboard-1" sketch:type="MSArtboardGroup" fill="#BBBBBB">
            <path d="M2,96.3207547 L27.3090909,96.3207547 L29.1168831,74.5833962 L5.61407792,69.1509434 L2,96.3207547 Z" id="Shape" sketch:type="MSShapeGroup"></path>
            <path d="M6.51948052,65.5267925 L29.1168831,70.9622642 L34.5417662,51.9418868 L15.5584416,41.9811321 L6.51948052,65.5267925 Z" id="Shape" sketch:type="MSShapeGroup"></path>
            <path d="M17.3662338,38.3569811 L35.4441558,48.3207547 L49.9064935,38.3569811 L36.3480519,22.9607547 L17.3662338,38.3569811 Z" id="Shape" sketch:type="MSShapeGroup"></path>
            <path d="M118.601091,96.3207547 L93.295013,96.3207547 L91.4842078,74.5833962 L114.987013,69.1509434 L118.601091,96.3207547 Z" id="Shape" sketch:type="MSShapeGroup"></path>
            <path d="M114.08161,65.5267925 L91.4842078,70.9622642 L86.0623377,51.9418868 L105.042649,41.9811321 L114.08161,65.5267925 Z" id="Shape" sketch:type="MSShapeGroup"></path>
            <path d="M103.236364,38.3569811 L85.1584416,48.3207547 L70.6976104,38.3569811 L84.2560519,22.9607547 L103.236364,38.3569811 Z" id="Shape" sketch:type="MSShapeGroup"></path>
            <path d="M40.8675325,20.2437736 L54.425974,36.5456604 L67.0805195,36.5456604 L78.8311688,20.2437736 L67.0805195,16.6226415 L54.1081039,16.6226415 L40.8675325,20.2437736 Z" id="Shape" sketch:type="MSShapeGroup"></path>
            <path d="M2,96.3207547 L27.3090909,96.3207547 L29.1168831,74.5833962 L5.61407792,69.1509434 L2,96.3207547 Z" id="Shape" sketch:type="MSShapeGroup"></path>
            <path d="M6.51948052,65.5267925 L29.1168831,70.9622642 L34.5417662,51.9418868 L15.5584416,41.9811321 L6.51948052,65.5267925 Z" id="Shape" sketch:type="MSShapeGroup"></path>
            <path d="M17.3662338,38.3569811 L35.4441558,48.3207547 L49.9064935,38.3569811 L36.3480519,22.9607547 L17.3662338,38.3569811 Z" id="Shape" sketch:type="MSShapeGroup"></path>
            <path d="M118.601091,96.3207547 L93.295013,96.3207547 L91.4842078,74.5833962 L114.987013,69.1509434 L118.601091,96.3207547 Z" id="Shape" sketch:type="MSShapeGroup"></path>
            <path d="M114.08161,65.5267925 L91.4842078,70.9622642 L86.0623377,51.9418868 L105.042649,41.9811321 L114.08161,65.5267925 Z" id="Shape" sketch:type="MSShapeGroup"></path>
            <path d="M103.236364,38.3569811 L85.1584416,48.3207547 L70.6976104,38.3569811 L84.2560519,22.9607547 L103.236364,38.3569811 Z" id="Shape" sketch:type="MSShapeGroup"></path>
            <path d="M40.8675325,20.2437736 L54.425974,36.5456604 L67.0805195,36.5456604 L78.8311688,20.2437736 L67.0805195,16.6226415 L54.1081039,16.6226415 L40.8675325,20.2437736 Z" id="Shape" sketch:type="MSShapeGroup"></path>
        </g>
    </g>
</svg>