<?xml version="1.0" encoding="UTF-8" standalone="no"?>
<svg width="29px" height="26px" viewBox="0 0 29 26" version="1.1" xmlns="http://www.w3.org/2000/svg" xmlns:xlink="http://www.w3.org/1999/xlink" xmlns:sketch="http://www.bohemiancoding.com/sketch/ns">
    <!-- Generator: Sketch 3.1 (8751) - http://www.bohemiancoding.com/sketch -->
    <title></title>
    <desc>Created with Sketch.</desc>
    <defs></defs>
    <g id="Page-1" stroke="none" stroke-width="1" fill="none" fill-rule="evenodd" sketch:type="MSPage">
        <g id="keys" sketch:type="MSArtboardGroup" transform="translate(-10.000000, -12.000000)" fill="#FFFFFF">
            <path d="M30.03125,12 C27.7604053,12.0625003 25.8750075,12.8437425 24.375,14.34375 C22.8749925,15.8437575 22.0937503,17.7291553 22.03125,20 C22.03125,20.6041697 22.0937494,21.1979137 22.21875,21.78125 L10,34 L10,36 L12,38 L16,38 L18,36 L18,34 L20,34 L20,32 L22,32 L22,30 L26,30 L28.21875,27.78125 C28.8020863,27.9270841 29.4062469,28 30.03125,28 C32.3020947,27.9374997 34.1874925,27.1562575 35.6875,25.65625 C37.1875075,24.1562425 37.9687497,22.2708447 38.03125,20 C37.9687497,17.7291553 37.1875075,15.8437575 35.6875,14.34375 C34.1874925,12.8437425 32.3020947,12.0625003 30.03125,12 L30.03125,12 Z M22,26 L12,36 L12,34 L22,24 L22,26 Z M32,20 C31.4374972,19.9791666 30.9687519,19.7812519 30.59375,19.40625 C30.2187481,19.0312481 30.03125,18.5625028 30.03125,18 C30.03125,17.4374972 30.2187481,16.9687519 30.59375,16.59375 C30.9687519,16.2187481 31.4374972,16.03125 32,16.03125 C32.5625028,16.03125 33.0312481,16.2187481 33.40625,16.59375 C33.7812519,16.9687519 33.96875,17.4374972 33.96875,18 C33.96875,18.5625028 33.7812519,19.0312481 33.40625,19.40625 C33.0312481,19.7812519 32.5625028,19.9791666 32,20 L32,20 Z" id="" sketch:type="MSShapeGroup"></path>
        </g>
    </g>
</svg>