<?xml version="1.0" encoding="UTF-8" standalone="no"?>
<svg width="50px" height="50px" viewBox="0 0 50 50" version="1.1" xmlns="http://www.w3.org/2000/svg" xmlns:xlink="http://www.w3.org/1999/xlink" xmlns:sketch="http://www.bohemiancoding.com/sketch/ns">
    <!-- Generator: Sketch 3.1 (8751) - http://www.bohemiancoding.com/sketch -->
    <title>billing</title>
    <desc>Created with Sketch.</desc>
    <defs></defs>
    <g id="Page-1" stroke="none" stroke-width="1" fill="none" fill-rule="evenodd" sketch:type="MSPage">
        <g id="billing" sketch:type="MSArtboardGroup" fill="#FFFFFF">
            <path d="M14,31 L18,31 L18,29 L14,29 L14,31 Z M20,31 L24,31 L24,29 L20,29 L20,31 Z M22,25 L14,25 L14,27 L22,27 L22,25 Z M18,23 L20,23 L24,19 L22,19 L18,23 Z M24,27 L30,27 L30,25 L24,25 L24,27 Z M40,15 L26,15 L12,15 C11.4791641,15.0208334 11.0208353,15.2291647 10.625,15.625 C10.2291647,16.0208353 10.0208334,16.4791641 10,17 L10,33 C10.0208334,33.5208359 10.2291647,33.9791647 10.625,34.375 C11.0208353,34.7708353 11.4791641,34.9791666 12,35 L40,35 C40.5208359,34.9791666 40.9791647,34.7708353 41.375,34.375 C41.7708353,33.9791647 41.9791666,33.5208359 42,33 L42,17 C41.9791666,16.4791641 41.7708353,16.0208353 41.375,15.625 C40.9791647,15.2291647 40.5208359,15.0208334 40,15 L40,15 Z M40,23 L40,32 C40.0208334,32.0416669 39.9791672,32.2083319 39.875,32.5 C39.7708328,32.7916681 39.4791691,32.9583331 39,33 L13,33 C12.5208309,32.9583331 12.2291672,32.7916681 12.125,32.5 C12.0208328,32.2083319 11.9791666,32.0416669 12,32 L12,23 L14,23 L18,19 L12,19 L12,18 C11.9791666,17.9583331 12.0208328,17.7916681 12.125,17.5 C12.2291672,17.2083319 12.5208309,17.0416669 13,17 L39,17 C39.4791691,17.0416669 39.7708328,17.2083319 39.875,17.5 C39.9791672,17.7916681 40.0208334,17.9583331 40,18 L40,19 L28,19 L24,23 L40,23 Z" id="ï…" sketch:type="MSShapeGroup"></path>
        </g>
    </g>
</svg>