<?xml version="1.0" encoding="UTF-8" standalone="no"?>
<svg width="30px" height="30px" viewBox="0 0 30 30" version="1.1" xmlns="http://www.w3.org/2000/svg" xmlns:xlink="http://www.w3.org/1999/xlink" xmlns:sketch="http://www.bohemiancoding.com/sketch/ns">
    <!-- Generator: Sketch 3.1 (8751) - http://www.bohemiancoding.com/sketch -->
    <title></title>
    <desc>Created with Sketch.</desc>
    <defs></defs>
    <g id="Page-1" stroke="none" stroke-width="1" fill="none" fill-rule="evenodd" sketch:type="MSPage">
        <g id="support" sketch:type="MSArtboardGroup" transform="translate(-10.000000, -10.000000)" fill="#FFFFFF">
            <path d="M23.125,32.5 L26.875,32.5 L26.875,28.75 L23.125,28.75 L23.125,32.5 Z M25,17.5 C23.5351489,17.558594 22.2460993,18.1445257 21.1328125,19.2578125 C20.0195257,20.3710993 19.433594,21.6601489 19.375,23.125 L23.125,23.125 C23.1445313,22.6367163 23.3398419,22.2070331 23.7109375,21.8359375 C24.0820331,21.4648419 24.5117163,21.2792969 25,21.2792969 C25.4882837,21.2792969 25.9179669,21.4648419 26.2890625,21.8359375 C26.6601581,22.2070331 26.8554687,22.6367163 26.875,23.125 C26.7187492,23.9843793 26.0937555,24.609373 25,25 C23.9062445,25.390627 23.2812508,26.0156207 23.125,26.875 L26.875,26.875 C27.8515674,26.5820298 28.7109338,26.0742224 29.453125,25.3515625 C30.1953162,24.6289026 30.5859373,23.5742257 30.625,22.1875 C30.566406,20.7617116 29.9804743,19.6289104 28.8671875,18.7890625 C27.7539007,17.9492146 26.4648511,17.5195313 25,17.5 L25,17.5 Z M25,10 C20.7421662,10.0976567 17.2021625,11.5576031 14.3798828,14.3798828 C11.5576031,17.2021625 10.0976567,20.7421662 10,25 C10.0976567,29.2578338 11.5576031,32.7978375 14.3798828,35.6201172 C17.2021625,38.4423969 20.7421662,39.9023433 25,40 C29.2578338,39.9023433 32.7978375,38.4423969 35.6201172,35.6201172 C38.4423969,32.7978375 39.9023433,29.2578338 40,25 C39.9023433,20.7421662 38.4423969,17.2021625 35.6201172,14.3798828 C32.7978375,11.5576031 29.2578338,10.0976567 25,10 L25,10 Z M25,36.25 C21.8163903,36.1718746 19.1650497,35.0732528 17.0458984,32.9541016 C14.9267472,30.8349503 13.8281254,28.1836097 13.75,25 C13.8281254,21.8163903 14.9267472,19.1650497 17.0458984,17.0458984 C19.1650497,14.9267472 21.8163903,13.8281254 25,13.75 C28.1836097,13.8281254 30.8349503,14.9267472 32.9541016,17.0458984 C35.0732528,19.1650497 36.1718746,21.8163903 36.25,25 C36.1718746,28.1836097 35.0732528,30.8349503 32.9541016,32.9541016 C30.8349503,35.0732528 28.1836097,36.1718746 25,36.25 L25,36.25 Z" id="" sketch:type="MSShapeGroup"></path>
        </g>
    </g>
</svg>