<?xml version="1.0" encoding="UTF-8" standalone="no"?>
<svg width="50px" height="50px" viewBox="0 0 50 50" version="1.1" xmlns="http://www.w3.org/2000/svg" xmlns:xlink="http://www.w3.org/1999/xlink" xmlns:sketch="http://www.bohemiancoding.com/sketch/ns">
    <!-- Generator: Sketch 3.1 (8751) - http://www.bohemiancoding.com/sketch -->
    <title>images</title>
    <desc>Created with Sketch.</desc>
    <defs></defs>
    <g id="Page-1" stroke="none" stroke-width="1" fill="none" fill-rule="evenodd" sketch:type="MSPage">
        <g id="images" sketch:type="MSArtboardGroup" fill="#FFFFFF">
            <path d="M34.862069,15.5596154 L30.3793103,15.5596154 L27.6896552,13.0211538 L21.4137931,13.0211538 L18.7241379,15.5596154 L14.2413793,15.5596154 C12.7557931,15.5596154 12.0708276,16.2526154 12.0708276,17.6538462 L12.0708276,32.0384615 C12.0708276,33.4396923 12.7557931,35.0211538 14.2413793,35.0211538 L34.862069,35.0211538 C36.3476552,35.0211538 38.0708276,33.4396923 38.0708276,32.0384615 L38.0708276,17.6538462 C38.0708276,16.2526154 36.3476552,15.5596154 34.862069,15.5596154 L34.862069,15.5596154 Z M24.5517241,31.6153846 C20.5970345,31.6153846 17.3793103,28.5785385 17.3793103,24.8461538 C17.3793103,21.1137692 20.5970345,18.0769231 24.5517241,18.0769231 C28.5064138,18.0769231 31.7241379,21.1137692 31.7241379,24.8461538 C31.7241379,28.5785385 28.5064138,31.6153846 24.5517241,31.6153846 L24.5517241,31.6153846 Z M24.5517241,20.6153846 C22.079931,20.6153846 20.0689655,22.5133077 20.0689655,24.8461538 C20.0689655,27.179 22.079931,29.0769231 24.5517241,29.0769231 C27.0235172,29.0769231 29.0344828,27.179 29.0344828,24.8461538 C29.0344828,22.5133077 27.0235172,20.6153846 24.5517241,20.6153846 L24.5517241,20.6153846 Z" id="Shape" sketch:type="MSShapeGroup"></path>
        </g>
    </g>
</svg>